<svg width="44" height="44" viewBox="0 0 44 44" fill="none" xmlns="http://www.w3.org/2000/svg">
<path d="M17.3607 28.2112C17.9756 28.2112 18.4914 28.0029 18.908 27.5862C19.3232 27.171 19.5308 26.656 19.5308 26.0411V17.3607C19.5308 16.7459 19.3232 16.2301 18.908 15.8135C18.4914 15.3983 17.9756 15.1907 17.3607 15.1907C16.7459 15.1907 16.2309 15.3983 15.8156 15.8135C15.399 16.2301 15.1907 16.7459 15.1907 17.3607V26.0411C15.1907 26.656 15.399 27.171 15.8156 27.5862C16.2309 28.0029 16.7459 28.2112 17.3607 28.2112ZM26.0411 28.2112C26.656 28.2112 27.1717 28.0029 27.5884 27.5862C28.0036 27.171 28.2112 26.656 28.2112 26.0411V17.3607C28.2112 16.7459 28.0036 16.2301 27.5884 15.8135C27.1717 15.3983 26.656 15.1907 26.0411 15.1907C25.4263 15.1907 24.9112 15.3983 24.496 15.8135C24.0794 16.2301 23.871 16.7459 23.871 17.3607V26.0411C23.871 26.656 24.0794 27.171 24.496 27.5862C24.9112 28.0029 25.4263 28.2112 26.0411 28.2112ZM21.7009 43.4019C18.699 43.4019 15.8779 42.8319 13.2376 41.6918C10.5973 40.5533 8.30061 39.0074 6.34752 37.0543C4.39444 35.1013 2.84861 32.8046 1.71003 30.1643C0.570011 27.524 0 24.7029 0 21.7009C0 20.7606 0.0636562 19.8383 0.190968 18.9341C0.316834 18.0299 0.488271 17.1257 0.70528 16.2215C0.886122 15.4257 1.28397 14.8738 1.89883 14.5657C2.51369 14.259 3.1828 14.2864 3.90617 14.6481C4.30402 14.8651 4.61145 15.2087 4.82846 15.6789C5.04547 16.1491 5.08164 16.6374 4.93696 17.1437C4.75612 17.9033 4.61145 18.6628 4.50294 19.4223C4.39444 20.1819 4.34019 20.9414 4.34019 21.7009C4.34019 26.5475 6.02201 30.6526 9.38565 34.0162C12.7493 37.3799 16.8544 39.0617 21.7009 39.0617C26.5475 39.0617 30.6526 37.3799 34.0162 34.0162C37.3799 30.6526 39.0617 26.5475 39.0617 21.7009C39.0617 16.8544 37.3799 12.7493 34.0162 9.38565C30.6526 6.02201 26.5475 4.34019 21.7009 4.34019C20.9052 4.34019 20.1276 4.39444 19.3681 4.50294C18.6086 4.61145 17.8671 4.75612 17.1437 4.93696C16.6374 5.08164 16.1585 5.05415 15.7071 4.8545C15.2543 4.6563 14.9013 4.34019 14.6481 3.90617C14.2503 3.25514 14.2322 2.60411 14.5939 1.95308C14.9556 1.30206 15.5162 0.886122 16.2757 0.70528C17.1437 0.452103 18.0299 0.271262 18.9341 0.162757C19.8383 0.0542524 20.7606 0 21.7009 0C24.7029 0 27.524 0.569288 30.1643 1.70786C32.8046 2.84789 35.1013 4.39444 37.0543 6.34752C39.0074 8.30061 40.5533 10.5973 41.6918 13.2376C42.8319 15.8779 43.4019 18.699 43.4019 21.7009C43.4019 24.7029 42.8319 27.524 41.6918 30.1643C40.5533 32.8046 39.0074 35.1013 37.0543 37.0543C35.1013 39.0074 32.8046 40.5533 30.1643 41.6918C27.524 42.8319 24.7029 43.4019 21.7009 43.4019ZM7.59533 10.8505C6.69112 10.8505 5.92291 10.5336 5.29069 9.89997C4.65702 9.26775 4.34019 8.49953 4.34019 7.59533C4.34019 6.69112 4.65702 5.92291 5.29069 5.29069C5.92291 4.65702 6.69112 4.34019 7.59533 4.34019C8.49953 4.34019 9.26775 4.65702 9.89997 5.29069C10.5336 5.92291 10.8505 6.69112 10.8505 7.59533C10.8505 8.49953 10.5336 9.26775 9.89997 9.89997C9.26775 10.5336 8.49953 10.8505 7.59533 10.8505Z" fill="#FFFDF2"/>
</svg>
