<svg width="44" height="44" viewBox="0 0 44 44" fill="none" xmlns="http://www.w3.org/2000/svg">
<path d="M24.145 32.8699C23.87 33.0165 23.5906 33.0392 23.3068 32.9381C23.0223 32.8377 22.8067 32.6501 22.66 32.3754L21.01 29.0784C20.8633 28.8037 20.8406 28.5245 20.9418 28.241C21.0423 27.9567 21.23 27.7413 21.505 27.5948C21.78 27.4482 22.0594 27.4255 22.3432 27.5266C22.6277 27.627 22.8433 27.8146 22.99 28.0893L24.64 31.3863C24.7867 31.6611 24.8098 31.9402 24.7093 32.2237C24.6081 32.508 24.42 32.7234 24.145 32.8699V32.8699ZM30.745 32.8699C30.47 33.0165 30.1906 33.0392 29.9068 32.9381C29.6223 32.8377 29.4067 32.6501 29.26 32.3754L27.61 29.0784C27.4633 28.8037 27.4406 28.5245 27.5418 28.241C27.6423 27.9567 27.83 27.7413 28.105 27.5948C28.38 27.4482 28.6594 27.4255 28.9432 27.5266C29.2277 27.627 29.4433 27.8146 29.59 28.0893L31.24 31.3863C31.3867 31.6611 31.4098 31.9402 31.3093 32.2237C31.2081 32.508 31.02 32.7234 30.745 32.8699V32.8699ZM17.545 32.8699C17.27 33.0165 16.9906 33.0392 16.7068 32.9381C16.4223 32.8377 16.2067 32.6501 16.06 32.3754L14.41 29.0784C14.2633 28.8037 14.2406 28.5245 14.3418 28.241C14.4423 27.9567 14.63 27.7413 14.905 27.5948C15.18 27.4482 15.4594 27.4255 15.7432 27.5266C16.0277 27.627 16.2433 27.8146 16.39 28.0893L18.04 31.3863C18.1867 31.6611 18.2098 31.9402 18.1093 32.2237C18.0081 32.508 17.82 32.7234 17.545 32.8699ZM17.05 26.3859C15.3817 26.3859 13.9564 25.795 12.7743 24.6132C11.5914 23.4322 11 22.0082 11 20.3414C11 18.8212 11.5042 17.4932 12.5125 16.3576C13.5208 15.222 14.7675 14.5534 16.2525 14.3519C16.8392 13.3079 17.6414 12.488 18.6593 11.8924C19.6764 11.2975 20.79 11 22 11C23.65 11 25.0844 11.5268 26.3032 12.5804C27.5227 13.6332 28.2608 14.9472 28.5175 16.5224C29.7825 16.6323 30.8458 17.1544 31.7075 18.0885C32.5692 19.0226 33 20.14 33 21.4404C33 22.8142 32.5189 23.982 31.5568 24.944C30.5939 25.9053 29.425 26.3859 28.05 26.3859H17.05Z" fill="#FFFDF2"/>
<circle cx="21.7009" cy="21.7009" r="19.7009" stroke="#FFFDF2" stroke-width="4"/>
</svg>
