<svg width="44" height="44" viewBox="0 0 44 44" fill="none" xmlns="http://www.w3.org/2000/svg">
<path d="M28.4224 14.7749C27.453 13.798 26.2763 13.051 24.9791 12.5892C23.6819 12.1274 22.2974 11.9625 20.9279 12.1066C16.6833 12.534 13.1905 15.9762 12.7164 20.2154C12.0803 25.8177 16.4173 30.542 21.8878 30.542C23.6344 30.542 25.345 30.0471 26.8211 29.1147C28.2972 28.1823 29.4781 26.8508 30.2266 25.2748C30.5967 24.5008 30.0415 23.6114 29.1857 23.6114C28.7578 23.6114 28.353 23.8424 28.1679 24.2236C27.4964 25.6664 26.3479 26.8341 24.9156 27.5304C23.4833 28.2268 21.8545 28.4092 20.3034 28.047C17.7358 27.481 15.6656 25.3903 15.122 22.8259C14.8935 21.8121 14.8961 20.7599 15.1297 19.7471C15.3633 18.7344 15.8219 17.7871 16.4715 16.9753C17.1211 16.1634 17.9452 15.5078 18.8827 15.057C19.8203 14.6061 20.8473 14.3716 21.8878 14.3706C23.8077 14.3706 25.5194 15.1676 26.7685 16.4267L25.0221 18.1709C24.2935 18.8986 24.8024 20.1461 25.8317 20.1461H29.9837C30.6198 20.1461 31.1403 19.6263 31.1403 18.991V14.8442C31.1403 13.8162 29.8912 13.2964 29.1626 14.0241L28.4224 14.7749Z" fill="#FFFDF2" stroke="#FFFDF2"/>
<circle cx="22.2991" cy="21.7009" r="19.7009" stroke="#FFFDF2" stroke-width="4"/>
</svg>
