<svg width="123" height="123" viewBox="0 0 123 123" fill="none" xmlns="http://www.w3.org/2000/svg">
<rect width="122.7" height="122.443" rx="45" fill="#E59266"/>
<path d="M19.9385 41.0985C20.2693 39.3695 21.9475 38.2428 23.6731 38.5913L26.3924 39.1406C26.5824 39.179 26.7687 39.2336 26.9494 39.3037L31.1473 40.9342C32.3957 41.419 33.0958 42.75 32.7879 44.0534V44.0534C32.4711 45.3948 31.1899 46.2783 29.8236 46.0976L24.959 45.4543L22.2561 44.7571C20.6393 44.34 19.6248 42.7385 19.9385 41.0985V41.0985Z" fill="#F4DD5C"/>
<path d="M24.1523 29.0435C25.0911 27.5543 27.0647 27.1176 28.5442 28.0717L30.8756 29.5753C31.0385 29.6803 31.1921 29.7991 31.3347 29.9304L34.6484 32.98C35.6338 33.8869 35.8 35.3815 35.0379 36.4828V36.4828C34.2535 37.6161 32.7383 37.9713 31.532 37.3045L27.2374 34.9308L24.9753 33.2955C23.6221 32.3173 23.2618 30.456 24.1523 29.0435V29.0435Z" fill="#F4DD5C"/>
<path d="M35.8786 20.081C37.4802 19.3504 39.3702 20.0674 40.0842 21.6765L41.2095 24.2123C41.2881 24.3894 41.3514 24.573 41.3987 24.7609L42.4977 29.1282C42.8245 30.427 42.144 31.768 40.9027 32.271V32.271C39.6254 32.7887 38.1635 32.2549 37.5203 31.0359L35.2305 26.696L34.2354 24.0881C33.6402 22.5281 34.3595 20.774 35.8786 20.081V20.081Z" fill="#F4DD5C"/>
<path d="M49.611 17.583C51.3677 17.697 52.6936 19.2227 52.5615 20.9782L52.3533 23.7446C52.3387 23.9379 52.3077 24.1295 52.2604 24.3175L51.1626 28.685C50.8361 29.9839 49.6022 30.8434 48.2706 30.6995V30.6995C46.9003 30.5513 45.865 29.3894 45.875 28.0112L45.9106 23.1043L46.2677 20.336C46.4812 18.68 47.9447 17.4748 49.611 17.583V17.583Z" fill="#F4DD5C"/>
<path d="M61.1576 22.2916C62.7657 23.0079 63.4801 24.8988 62.7473 26.4994L61.5925 29.0219C61.5118 29.1981 61.4162 29.3671 61.3066 29.527L58.7621 33.2426C58.0053 34.3476 56.5498 34.7258 55.3509 34.1289V34.1289C54.1171 33.5146 53.549 32.0657 54.0364 30.7765L55.7719 26.1867L57.067 23.714C57.8417 22.2349 59.6323 21.6122 61.1576 22.2916V22.2916Z" fill="#F4DD5C"/>
<path d="M39.1665 65.8754C40.0499 63.1353 41.44 61.572 42.0246 61.1328C49.1051 68.115 63.6168 82.4219 65.0199 83.7919C64.1884 85.1093 61.4688 86.3169 60.213 86.7561C55.7308 88.315 45.2465 91.8017 39.1665 93.2771C32.8265 93.5406 32.584 88.6004 33.2553 86.0974C34.8576 80.4985 38.283 68.6156 39.1665 65.8754Z" fill="#59433A"/>
<path d="M41.3303 61.9814C39.2639 63.3809 36.5531 73.4492 35.4561 78.3084C37.1926 80.0126 42.1759 84.8919 48.2171 90.7757C57.9609 88.4378 62.9338 85.7106 64.2022 84.6393C57.2032 77.7947 42.8301 63.6808 41.3303 61.9814Z" fill="#FFCF4F"/>
<path d="M42.0107 61.1328L71.8308 30.2908C74.6563 27.3686 79.2837 27.3228 82.1663 30.1887L94.6196 42.5695C97.5023 45.4354 97.5486 50.1277 94.7232 53.05L64.9031 83.8919L42.0107 61.1328Z" fill="#59433A"/>
</svg>
