<svg width="31" height="31" viewBox="0 0 31 31" fill="none" xmlns="http://www.w3.org/2000/svg">
<path d="M15.5 17.2222C15.988 17.2222 16.3973 17.0569 16.7279 16.7262C17.0575 16.3967 17.2222 15.988 17.2222 15.5V8.61111C17.2222 8.12315 17.0575 7.71383 16.7279 7.38317C16.3973 7.05365 15.988 6.88889 15.5 6.88889C15.012 6.88889 14.6033 7.05365 14.2738 7.38317C13.9431 7.71383 13.7778 8.12315 13.7778 8.61111V15.5C13.7778 15.988 13.9431 16.3967 14.2738 16.7262C14.6033 17.0569 15.012 17.2222 15.5 17.2222ZM15.5 31C13.3759 31 11.3736 30.5913 9.49289 29.7738C7.61337 28.9551 5.97037 27.8426 4.56389 26.4361C3.15741 25.0296 2.04485 23.3866 1.22622 21.5071C0.408741 19.6264 0 17.6241 0 15.5C0 13.3759 0.408741 11.3736 1.22622 9.49289C2.04485 7.61337 3.15741 5.97037 4.56389 4.56389C5.97037 3.15741 7.61337 2.04543 9.49289 1.22794C11.3736 0.409315 13.3759 0 15.5 0C17.2796 0 18.9875 0.287037 20.6236 0.861111C22.2597 1.43519 23.7954 2.26759 25.2306 3.35833L26.4792 2.10972C26.7949 1.79398 27.1824 1.63611 27.6417 1.63611C28.1009 1.63611 28.5028 1.80833 28.8472 2.15278C29.163 2.46852 29.3208 2.87037 29.3208 3.35833C29.3208 3.8463 29.163 4.24815 28.8472 4.56389L27.6417 5.76944C28.7324 7.20463 29.5648 8.74028 30.1389 10.3764C30.713 12.0125 31 13.7204 31 15.5C31 17.6241 30.5913 19.6264 29.7738 21.5071C28.9551 23.3866 27.8426 25.0296 26.4361 26.4361C25.0296 27.8426 23.3866 28.9551 21.5071 29.7738C19.6264 30.5913 17.6241 31 15.5 31Z" fill="#756A56"/>
</svg>
